<?xml version="1.0" encoding="utf-8"?>
<!-- Generator: Adobe Illustrator 22.0.1, SVG Export Plug-In . SVG Version: 6.00 Build 0)  -->
<svg version="1.1" id="Слой_1" xmlns="http://www.w3.org/2000/svg" xmlns:xlink="http://www.w3.org/1999/xlink" x="0px" y="0px"
	 viewBox="0 0 282.9 196.2" style="enable-background:new 0 0 282.9 196.2;" xml:space="preserve">
<style type="text/css">
	.st0{fill:#00ACCF;}
</style>
<g>
	<path class="st0" d="M139.6,110.4c-30.3,0-55-24.7-55-55s24.7-55,55-55c30.3,0,55,24.7,55,55S169.9,110.4,139.6,110.4z M139.6,6.4
		c-27,0-49,22-49,49s22,49,49,49c27,0,49-22,49-49S166.6,6.4,139.6,6.4z"/>
</g>
<g>
	<path class="st0" d="M139.6,84.7c-1.7,0-3-1.4-3-3V29.1c0-1.7,1.4-3,3-3c1.7,0,3,1.4,3,3v52.6C142.6,83.4,141.3,84.7,139.6,84.7z"
		/>
</g>
<g>
	<path class="st0" d="M165.9,58.4h-52.6c-1.7,0-3-1.4-3-3s1.4-3,3-3h52.6c1.7,0,3,1.4,3,3S167.6,58.4,165.9,58.4z"/>
</g>
<g>
	<path class="st0" d="M121.2,77c-0.8,0-1.5-0.3-2.1-0.9c-1.2-1.2-1.2-3.1,0-4.3l37.2-37.2c1.2-1.2,3.1-1.2,4.3,0
		c1.2,1.2,1.2,3.1,0,4.3l-37.2,37.2C122.7,76.7,122,77,121.2,77z"/>
</g>
<g>
	<path class="st0" d="M158.3,77.1c-0.8,0-1.5-0.3-2.1-0.9L119,39c-1.2-1.2-1.2-3.1,0-4.3s3.1-1.2,4.3,0L160.4,72
		c1.2,1.2,1.2,3.1,0,4.3C159.8,76.8,159.1,77.1,158.3,77.1z"/>
</g>
<g>
	<path class="st0" d="M168.6,29.3c-0.8,0-1.5-0.3-2.1-0.9c-1.2-1.2-1.2-3.1,0-4.3L186,4.3c1.2-1.2,3.1-1.2,4.3,0
		c1.2,1.2,1.2,3.1,0,4.3l-19.6,19.9C170.2,29,169.4,29.3,168.6,29.3z"/>
</g>
<g>
	<path class="st0" d="M91.5,107.4c-0.8,0-1.5-0.3-2.1-0.9c-1.2-1.2-1.2-3.1,0-4.3l19.6-20c1.2-1.2,3.1-1.2,4.3,0
		c1.2,1.2,1.2,3.1,0,4.3l-19.6,20C93.1,107.1,92.3,107.4,91.5,107.4z"/>
</g>
<g>
	<path class="st0" d="M16.8,195.4L5.4,165.1v30.3H0v-44.3h5l11.3,30.3v-30.3h5.4v44.3H16.8z"/>
	<path class="st0" d="M47.1,192.6c-1.7,1.9-4.1,3.2-7.6,3.2s-5.9-1.3-7.6-3.2c-2.9-3.2-3.2-7.2-3.2-19.4s0.4-16.2,3.2-19.4
		c1.7-1.9,4.1-3.2,7.6-3.2s5.9,1.3,7.6,3.2c2.9,3.2,3.2,7.2,3.2,19.4S49.9,189.5,47.1,192.6z M43.1,157c-0.7-1-1.9-1.7-3.6-1.7
		c-1.7,0-2.9,0.7-3.7,1.7c-1.6,2.1-1.8,5.7-1.8,16.2s0.2,14.1,1.8,16.2c0.7,1,1.9,1.7,3.7,1.7c1.7,0,2.9-0.7,3.6-1.7
		c1.6-2.1,1.9-5.7,1.9-16.2S44.6,159.2,43.1,157z"/>
	<path class="st0" d="M67.2,176.9h-4.6v18.5h-5.4v-44.3h10c6.7,0,10.5,3.1,10.5,12.9C77.7,173.7,73.8,176.9,67.2,176.9z M67,155.9
		h-4.4v16.2H67c3.6,0,5.4-2.2,5.4-8.1C72.3,158,70.6,155.9,67,155.9z"/>
	<path class="st0" d="M97.6,195.4l-2.1-10.5H85.2l-2.1,10.5h-5.6l10.3-44.3H93l10.3,44.3H97.6z M90.4,159.7l-4.2,20.4h8.3
		L90.4,159.7z"/>
	<path class="st0" d="M124.6,193.1c-1.7,1.6-4.3,2.7-7.8,2.7c-3.4,0-6-0.9-7.8-2.7c-2.1-2.1-2.7-4.6-2.7-9.3h5.4
		c0,2.9,0.3,4.5,1.5,5.8c0.7,0.8,2,1.4,3.7,1.4c1.8,0,3-0.6,3.8-1.4c1.2-1.3,1.4-3,1.4-5.9c0-5.1-0.7-6.7-4.4-8.2l-5-2.1
		c-4.5-1.9-6-4.4-6-11.1c0-3.9,1.1-7,3.4-9.1c1.7-1.6,4.1-2.6,7-2.6c3.2,0,5.7,0.9,7.3,2.6c2.2,2.2,2.9,5,2.9,9.1h-5.4
		c0-2.4-0.2-4-1.4-5.4c-0.7-0.9-1.9-1.5-3.6-1.5c-1.6,0-2.7,0.6-3.4,1.4c-1.1,1.2-1.6,3-1.6,5.3c0,4.4,0.7,5.7,4.2,7.2l5,2.1
		c5,2.1,6.2,5.2,6.2,12.1C127.4,188.1,126.7,191,124.6,193.1z"/>
	<path class="st0" d="M150.8,193.1c-1.7,1.6-4.3,2.7-7.8,2.7c-3.4,0-6-0.9-7.8-2.7c-2.1-2.1-2.7-4.6-2.7-9.3h5.4
		c0,2.9,0.3,4.5,1.5,5.8c0.7,0.8,2,1.4,3.7,1.4c1.8,0,3-0.6,3.8-1.4c1.2-1.3,1.4-3,1.4-5.9c0-5.1-0.7-6.7-4.4-8.2l-5-2.1
		c-4.5-1.9-6-4.4-6-11.1c0-3.9,1.1-7,3.4-9.1c1.7-1.6,4.1-2.6,7-2.6c3.2,0,5.7,0.9,7.3,2.6c2.2,2.2,2.9,5,2.9,9.1H148
		c0-2.4-0.2-4-1.4-5.4c-0.7-0.9-1.9-1.5-3.6-1.5c-1.6,0-2.7,0.6-3.4,1.4c-1.1,1.2-1.6,3-1.6,5.3c0,4.4,0.7,5.7,4.2,7.2l5,2.1
		c5,2.1,6.2,5.2,6.2,12.1C153.5,188.1,152.9,191,150.8,193.1z"/>
	<path class="st0" d="M189.5,195.4H184l-6.9-35.7l-6.8,35.7h-5.5l-7.7-44.3h5.9l4.5,35.7l6.6-35.7h6l6.7,35.7l4.5-35.7h5.9
		L189.5,195.4z"/>
	<path class="st0" d="M220,192.6c-1.7,1.9-4.1,3.2-7.6,3.2s-5.9-1.3-7.6-3.2c-2.9-3.2-3.2-7.2-3.2-19.4s0.4-16.2,3.2-19.4
		c1.7-1.9,4.1-3.2,7.6-3.2s5.9,1.3,7.6,3.2c2.9,3.2,3.2,7.2,3.2,19.4S222.8,189.5,220,192.6z M216,157c-0.7-1-1.9-1.7-3.6-1.7
		c-1.7,0-2.9,0.7-3.7,1.7c-1.6,2.1-1.8,5.7-1.8,16.2s0.2,14.1,1.8,16.2c0.7,1,1.9,1.7,3.7,1.7c1.7,0,2.9-0.7,3.6-1.7
		c1.6-2.1,1.9-5.7,1.9-16.2S217.5,159.2,216,157z"/>
	<path class="st0" d="M246.4,195.4l-6.1-19h-4.8v19h-5.4v-44.3h10c6.7,0,10.5,2.9,10.5,12.6c0,6.2-1.5,9.8-5.4,11.6l6.8,20.1
		L246.4,195.4L246.4,195.4z M240.2,155.9h-4.7v15.7h4.7c4.1,0,5-3.2,5-7.9S244.3,155.9,240.2,155.9z"/>
	<path class="st0" d="M276.2,192.3c-1.6,1.8-4,3.1-7.6,3.1h-10.2v-44.3h10.2c3.6,0,6,1.3,7.6,3.1c2.9,3,3.2,7,3.2,19
		C279.4,185.2,279.1,189.2,276.2,192.3z M272.3,157.5c-0.8-1-2.1-1.7-3.8-1.7h-4.7v34.7h4.7c1.7,0,3-0.7,3.8-1.7
		c1.7-2.1,1.8-5.5,1.8-15.7S273.9,159.6,272.3,157.5z"/>
</g>
<g>
	<path class="st0" d="M274.8,142.2v7.9h-1.1v-7.9h-1.5v-1h4v1H274.8z"/>
	<path class="st0" d="M281.9,150.1v-6.3l-1.4,4.1h-0.7l-1.4-4v6.2h-1.1v-8.9h1l1.8,4.9l1.8-4.9h1v8.9H281.9z"/>
</g>
</svg>
